<?xml version="1.0" encoding="UTF-8"?>
<svg id="Layer_1" xmlns="http://www.w3.org/2000/svg" version="1.1" viewBox="0 0 216 216">
  <!-- Generator: Adobe Illustrator 30.0.0, SVG Export Plug-In . SVG Version: 2.1.1 Build 123)  -->
  <path d="M149.19,56.52h0s0-17.54,0-17.54h17.54s0,17.54,0,17.54h-17.54ZM105.58,177.01h-22.42s0,0,0,0h-22.42s0,0,0,0h0s-22.42,0-22.42,0v-22.42h0v-89.7h89.68s0,0,0,0h22.43v22.42s0,0,0,0h22.42v22.43s0,0,0,0v22.42s0,0,0,0v22.43h0v22.42h-22.42s0,0,0,0h-22.43s0,0,0,0h-22.4M105.57,87.29h0s.02.02.02.02v-.04l-.02.02ZM60.74,154.59h.04v-22.25l-.04-.04v22.29ZM172.85,64.9h-14.89s0,14.89,0,14.89h14.89,0v-14.89ZM178.5,51.03v10.84h10.84v-10.84h-10.84ZM150,87.46l-17.71,7.62-26.78,11.53-44.88-19.34v67.35l22.5,11.93-.03-49.93,22.47,9.89,22.41-11.26v51.29l22.36-11.96v-67.26l-.34.14Z"/>
</svg>